<?xml version="1.0" encoding="utf-8"?>
<!-- Generator: Adobe Illustrator 18.0.0, SVG Export Plug-In . SVG Version: 6.00 Build 0)  -->
<!DOCTYPE svg PUBLIC "-//W3C//DTD SVG 1.1//EN" "http://www.w3.org/Graphics/SVG/1.1/DTD/svg11.dtd">
<svg version="1.1" id="Layer_1" xmlns="http://www.w3.org/2000/svg" xmlns:xlink="http://www.w3.org/1999/xlink" x="0px" y="0px"
	 viewBox="0 0 450 180" enable-background="new 0 0 450 180" xml:space="preserve">
<g>
	<path fill="#FFFFFF" d="M40.9,26.1c1.2,1.4,1.9,5.1,2.2,11c0.3,6.1,0.6,9.7,0.9,11c0.6,2.6,1.4,4.2,2.6,4.8c1,0.6,3.7,1.1,8,1.5
		c7.7,0.7,14.2,3,19.7,6.9c5.5,3.9,9.5,8.5,11.9,13.9c1.6,3.5,2.4,7.1,2.4,11c0,1.9-0.2,3.9-0.6,6.1c-1.2,6.2-4.2,11.9-9.1,17.1
		c-4.2,4.5-11.6,7.6-22.1,9.3c-3.9,0.6-7.4,0.9-10.4,0.9c-5.2,0-9.1-0.9-11.7-2.6c-1.7-1.2-2.8-3.6-3.2-7.4
		c-0.4-3.8-0.9-13.9-1.5-30.3c-0.3-7.4-0.4-14-0.4-19.9c0-20.7,1.6-32,4.8-34c1.6-1,2.8-1.5,3.7-1.5C38.7,24.1,39.7,24.8,40.9,26.1
		 M47.1,103.6c1.2,0.1,2.3,0.2,3.5,0.2c4.3,0,8.4-0.8,12.3-2.4c4.9-2,7.9-4.8,9.1-8.4c0.6-1.7,0.9-3.5,0.9-5.2c0-2-0.4-4-1.1-6.1
		c-1.3-3.8-3.4-6.5-6.3-8.2c-2.9-1.7-6.7-2.9-11.5-3.5c-1.3-0.1-2.5-0.2-3.5-0.2c-2.6,0-4.3,0.5-5,1.5v1.9
		C45.6,77.5,46.1,87.6,47.1,103.6"/>
	<path fill="#FFFFFF" d="M140.9,119.5c-0.9,0.9-4,2.1-9.5,3.7c-5.5,1.8-10.3,1.6-13.4,1.6c-6.2,0-10.7-1-14.8-5.3
		c-4.1-4.2-6.1-9.4-6.2-15.8c0-7.1,2.9-13.7,8.8-20c6-6.2,12.5-9.4,19.4-9.4c2,0,3.4-0.2,4.1-0.5c0.7-0.3,0.9-0.9,0.6-1.7
		c-0.3-0.9-1.1-2.4-2.4-4.5c-1.9-2.6-4.5-3.9-7.8-3.8c-3.2,0.2-6.1,1.6-8.9,4.4c-4.4,5.1-7.7,6-9.7,2.7c-1-1.6-1.1-3.7-0.3-6.3
		c0.7-2.6,2.4-5.2,4.9-7.8c2.2-2.2,4.6-3.6,7.3-4.2c1.9-0.4,6-0.7,8.6-0.7c1.2,0,0.5,0,1.8,0c7.5,0.7,13.1,3.7,16.7,9
		c3.5,5.2,6.2,13.4,8.2,24.6c1.2,6.1,1.8,10.9,1.8,14.5c0,0.4-0.1,0.9-0.2,1.3c-0.1,3.6-0.1,8.2-3.1,12.3
		C144.7,116.6,143.2,117.8,140.9,119.5 M128.4,88.4c-2.3,0.4-7.8,1.1-11.4,4.3c-2.2,2.1-3.2,4.2-3.8,6c-0.4,1.1-0.8,2.3-0.8,3.9
		c0,0.3,0,0.5,0,0.8c0.3,3.6,1.5,5.9,3.6,6.8c0.7,0.3,1.4,0.4,2.3,0.4c0,0,11.4,0.1,14.5-3.9c1.3-1.8,1.6-6,1.3-8.3
		C134.1,98.4,134.1,87.4,128.4,88.4"/>
	<path fill="#FFFFFF" d="M171.3,26.1c1.2,1.4,1.9,5.1,2.2,11c0.3,6.1,0.6,9.7,0.9,11c0.6,2.6,1.4,4.2,2.6,4.8c1,0.6,3.7,1.1,8,1.5
		c7.7,0.7,14.2,3,19.7,6.9c5.5,3.9,9.5,8.5,11.9,13.9c1.6,3.5,2.4,7.1,2.4,11c0,1.9-0.2,3.9-0.6,6.1c-1.2,6.2-4.2,11.9-9.1,17.1
		c-4.2,4.5-11.6,7.6-22.1,9.3c-3.9,0.6-7.4,0.9-10.4,0.9c-5.2,0-9.1-0.9-11.7-2.6c-1.7-1.2-2.8-3.6-3.2-7.4
		c-0.4-3.8-0.9-13.9-1.5-30.3c-0.3-7.4-0.4-14-0.4-19.9c0-20.7,1.6-32,4.8-34c1.6-1,2.8-1.5,3.7-1.5
		C169.1,24.1,170.2,24.8,171.3,26.1 M177.6,103.6c1.2,0.1,2.3,0.2,3.5,0.2c4.3,0,8.4-0.8,12.3-2.4c4.9-2,7.9-4.8,9.1-8.4
		c0.6-1.7,0.9-3.5,0.9-5.2c0-2-0.4-4-1.1-6.1c-1.3-3.8-3.4-6.5-6.3-8.2c-2.9-1.7-6.7-2.9-11.5-3.5c-1.3-0.1-2.5-0.2-3.5-0.2
		c-2.6,0-4.3,0.5-5,1.5v1.9C176.1,77.5,176.6,87.6,177.6,103.6"/>
	<path fill="#FFFFFF" d="M281,99.5c0,12.6-1.8,22-5.4,28.2c-3.8,6.2-10,10.5-18.6,13c-4.3,1.2-8.1,1.7-11.3,1.7
		c-2.5,0-4.5-0.3-6.3-0.9c-4.3-1.6-6.5-4.8-6.5-9.7c0-3,0.6-4.9,1.7-5.6c1.2-0.7,3.2-0.4,6.1,0.9c2.9,1.2,6.9,1.2,11.9,0
		c4.9-1.3,8.4-4,10.4-8c2-4.2,3.4-10,4.1-17.3c-1.4,1-3.8,2.5-6.9,4.5c-9,6.1-17,5.3-24-2.4c-4.8-5.3-7.9-14.9-9.5-28.6
		c-0.3-2.5-0.4-4.5-0.4-6.1c0-1.2,0.1-2,0.2-2.6c0.3-1.7,1.2-3.5,2.6-5.4c1.6-2,2.7-3.1,3.5-3.2c0.9-0.3,1.9,0.1,3,1.1
		c1.2,1.3,2,2.5,2.6,3.7c0.4,1.3,0.7,2.5,0.7,3.7c0.1,1,0.4,2.7,0.6,5c0.1,2.3,0.4,4.6,0.9,6.9c2.2,10.3,4.8,16,8,17.3
		c3.3,1.2,6.9-2.3,10.6-10.4c2.9-6.1,4.3-13,4.3-20.8c0-7.9,0.4-12.1,1.1-12.6c0.7-0.9,2-1.3,3.9-1.3c2,0,3.8,0.5,5.2,1.5
		c1.6,1,3.2,6.9,5,17.8C280.1,80.7,281,90.6,281,99.5"/>
	<path fill="#FFFFFF" d="M387.4,75.5c1.3,4.2,2.7,9.7,4.1,16.5c1.4,7.1,2.2,14.8,2.2,23.2v3.7c-0.3,10-1.6,17-3.9,21.2
		c-5.6,10.7-16.2,16-31.6,16c-15.2-0.9-22.4-5.7-21.7-14.5c1-6.2,4-8.4,8.9-6.5c5.1,2.5,9.1,3.9,12.1,4.3c4.3,0.7,7.9,0.5,10.8-0.7
		c2.9-1.2,5.3-3.8,7.1-7.8c2.2-4.6,3-10.1,2.6-16.5c-0.6-6.4-1.6-11.1-3-14.3c-1.6,1-4,2.4-7.4,4.1c-7.8,4-14.8,4.8-21,2.4
		c-6.1-2.3-10.7-6.8-13.9-13.4c-1.9-4-2.8-8.1-2.8-12.1c0-2.7,0.4-5.5,1.3-8.2c2.7-8.5,7.4-15.1,14.1-19.7c4.2-2.9,8.8-4.3,13.9-4.3
		c3,0,6.1,0.5,9.3,1.5c3.5,1,7.1,3.9,10.8,8.7C383.1,63.6,385.8,69.1,387.4,75.5 M344.9,81.1c0,2.5,0.5,4.7,1.5,6.7
		c0.9,1.9,2.2,3.4,3.9,4.5c1.2,0.7,2.8,1.2,5,1.3c0.3,0.1,0.6,0.2,0.9,0.2c2-0.1,4.3-1,6.9-2.6c4-2.5,6.4-5.2,6.9-8.2
		c0.1-0.9,0.2-1.8,0.2-2.8c0-2.7-0.6-6-1.7-9.7c-1.3-3.3-2.7-5.5-4.3-6.5c-1.2-0.6-2.3-0.9-3.5-0.9c-0.7,0-1.4,0.1-2.2,0.4
		c-2,0.6-4.5,2-7.4,4.3C347,71.2,344.9,75.6,344.9,81.1"/>
	<path fill="#FFFFFF" d="M413.3,116.2c-3.3,0-5.3-1.9-6.2-5.6c-0.9-3.8-1.3-12.2-1.5-25.3v-4.1c0-14.3,0.7-22.4,2.1-24.3
		c1.6-1.9,3.3-2.8,5.1-2.8h0.6c2.1,0.3,3.4,1.6,3.8,3.9c0.9,4.3,1.5,13.8,1.9,28.4c0.3,6.1,0.4,11,0.4,14.9c0,4.5-0.1,7.7-0.4,9.5
		C418.5,114.4,416.6,116.2,413.3,116.2"/>
	<path fill="#FFFFFF" d="M412.1,29.6c0.6-0.5,1.1-0.8,1.5-0.8c0.1,0,0.3,0,0.6,0c0.3,0,0.7,0,1.1,0.1c1.8,0.2,3.2,1.1,4.2,2.5
		c0.7,1,1.1,2.3,1.1,3.8c0,0.2,0,0.5,0,0.7c-0.1,1.8-0.7,3.3-1.7,4.3c-0.7,0.8-1.7,1.3-2.9,1.6c-0.6,0.1-1.2,0.2-1.9,0.2
		c-0.6,0-1.1-0.1-1.7-0.2c-1.7-0.5-2.9-1.4-3.6-3c-0.3-0.8-0.5-1.7-0.6-2.5c0-0.8,0.1-1.6,0.4-2.4C409.3,32.1,410.4,30.7,412.1,29.6
		"/>
</g>
</svg>
