<?xml version="1.0" encoding="utf-8"?>
<!-- Generator: Adobe Illustrator 18.0.0, SVG Export Plug-In . SVG Version: 6.00 Build 0)  -->
<!DOCTYPE svg PUBLIC "-//W3C//DTD SVG 1.1//EN" "http://www.w3.org/Graphics/SVG/1.1/DTD/svg11.dtd">
<svg version="1.1" id="Layer_1" xmlns="http://www.w3.org/2000/svg" xmlns:xlink="http://www.w3.org/1999/xlink" x="0px" y="0px"
	 viewBox="0 0 40 54" enable-background="new 0 0 40 54" xml:space="preserve">
<path fill="#BEBEBE" d="M15.8,41.5c0,2.2,0,4.3,0,6.4c0,0.2,0,0.5,0,0.7c0,0.5-0.3,0.9-0.9,0.9c-0.6,0-0.9-0.3-0.9-0.9
	c0-0.7,0-1.5,0-2.2c0-1.9,0-3.9,0-5.8c0-0.4-0.2-0.8-0.4-1.1C9,34,7.4,27.8,8.8,20.8c0.5-2.4,1.7-4.3,3.7-5.9
	c0.2-0.2,0.4-0.4,0.7-0.6c-1-0.4-2-0.8-2.9-1.2c-1.3-0.6-2.5-1.3-3.8-1.9c-1.1-0.6-1.3-1.4-0.6-2.5C6.6,7.7,7.6,7,8.7,6.5
	c1.9-0.7,3.8-0.9,5.8-0.9c0.2,0,0.4,0,0.8,0C15,4.3,14.7,3.2,14.3,2c-0.2-0.6,0.1-0.9,0.5-1.1c0.5-0.3,1.1,0,1.2,0.7
	c0.3,1,0.6,2.1,1,3.1c-0.1-0.8-0.3-1.7-0.4-2.5c-0.1-0.8,0.1-1.3,0.7-1.3c0.7-0.1,1,0.4,1.1,1c0.3,2.1,0.7,4.1,1,6.2
	c0.1,0.8-0.1,1.7-0.4,2.4c-0.3,0.9-0.7,1.7-1.2,2.4c-0.8,1-1,2-0.9,3.2c0.5,3.7,0.9,7.4,1.4,11.1c0.1,0.4,0.2,0.8,0.3,1.2
	c0.1,0.2,0.2,0.5,0.3,0.5c1.7-0.1,3.4-0.3,5-0.2c2.1,0,3.9,1,5.4,2.4c0.2,0.2,0.6,0.3,0.9,0.3c1,0.2,2.1,0.2,3.1,0.6
	c1.2,0.4,1.6,1.6,1,2.8c-0.3,0.7-0.9,1.2-1.3,1.9c-0.2,0.3-0.3,0.7-0.3,1c0.1,1.3-0.2,2.5-1.3,3.3c-0.2,0.2-0.4,0.6-0.4,1
	c0,3,0,6,0,8.9c0,0.2,0,0.4,0,0.5c0,0.6-0.2,1.1-0.9,1.1c-0.6,0-0.9-0.5-0.9-1.1c0-0.4,0-0.8,0-1.3V42c-0.1,0-0.1-0.1-0.2-0.1
	c-1.3,0.2-1.3,0.2-1.3,1.5c0,1.6,0,3.1,0,4.7c0,0.8-0.3,1.2-0.9,1.2c-0.7-0.1-0.9-0.6-0.9-1.2c0-1.9,0-3.8,0-5.7h-7.4
	c0,0.4,0,0.6,0,0.9c0,2.8,0,5.6,0,8.5c0,0.2,0.1,0.5,0,0.7c-0.2,0.3-0.5,0.7-0.9,0.7c-0.5,0.1-0.8-0.3-0.9-0.8c0-0.2,0-0.5,0-0.7
	c0-3.1,0-6.2,0-9.3C16.6,41.9,16.4,41.6,15.8,41.5 M15,15.3c-2.5,1.4-3.9,3.4-4.6,6c-0.7,2.6-0.6,5.2,0,7.8c0.8,3.7,2.2,7.1,5,9.7
	c1,0.9,2.1,1.7,3.5,1.7c1.3,0,2.6,0,3.8-0.1c2.1-0.1,4.2-0.2,6.2-0.6c1.7-0.3,2.2-1.3,1.6-2.9c-0.4-1.2-0.9-2.4-1.6-3.5
	c-1.1-1.7-2.6-2.8-4.6-3.1c-1.7-0.3-3.3-0.1-4.9,0.4c-0.8,0.3-1.5,0-1.9-0.7c-0.2-0.4-0.4-0.8-0.6-1.2c-1-2.7-1.2-5.5-1.5-8.3
	C15.3,18.9,15.2,17.2,15,15.3 M7.4,9.7c2.5,1.4,5,2.7,7.8,3.2c0.1,0,0.3,0,0.4-0.1c0.9-1.2,1.8-2.4,2-3.9c0.1-0.8-0.2-1.3-1-1.4
	c-2.4-0.3-4.7-0.1-7,0.7C8.7,8.5,7.9,8.8,7.4,9.7 M31.9,35.2c0.3-0.6,0.6-1,1-1.7c-0.7-0.1-1.3-0.3-2-0.4
	C31.3,33.9,31.6,34.4,31.9,35.2"/>
</svg>
